<svg width="206" height="147" viewBox="0 0 206 147" fill="none" xmlns="http://www.w3.org/2000/svg">
<path d="M96.9688 60.9062V85.5156C96.9688 96.1927 95.8294 105.405 93.5508 113.152C91.2721 120.835 87.9844 127.15 83.6875 132.098C79.4557 136.98 74.4102 140.594 68.5508 142.938C62.6914 145.281 56.181 146.453 49.0195 146.453C43.2904 146.453 37.9518 145.737 33.0039 144.305C28.056 142.807 23.5964 140.496 19.625 137.371C15.7188 134.246 12.3333 130.307 9.46875 125.555C6.66927 120.737 4.52083 115.008 3.02344 108.367C1.52604 101.727 0.777344 94.1094 0.777344 85.5156V60.9062C0.777344 50.2292 1.91667 41.082 4.19531 33.4648C6.53906 25.7826 9.82682 19.5 14.0586 14.6172C18.3555 9.73438 23.4336 6.15365 29.293 3.875C35.1523 1.53125 41.6628 0.359375 48.8242 0.359375C54.5534 0.359375 59.8594 1.10807 64.7422 2.60547C69.6901 4.03776 74.1497 6.28385 78.1211 9.34375C82.0924 12.4036 85.4779 16.3424 88.2773 21.1602C91.0768 25.9128 93.2253 31.6094 94.7227 38.25C96.2201 44.8255 96.9688 52.3776 96.9688 60.9062ZM68.7461 89.2266V57.0977C68.7461 51.9544 68.4531 47.4622 67.8672 43.6211C67.3464 39.7799 66.5326 36.5247 65.4258 33.8555C64.319 31.1211 62.9518 28.9076 61.3242 27.2148C59.6966 25.5221 57.8411 24.2852 55.7578 23.5039C53.6745 22.7227 51.3633 22.332 48.8242 22.332C45.6341 22.332 42.8021 22.9505 40.3281 24.1875C37.9193 25.4245 35.8685 27.4102 34.1758 30.1445C32.4831 32.8138 31.181 36.3945 30.2695 40.8867C29.4232 45.3138 29 50.7174 29 57.0977V89.2266C29 94.3698 29.2604 98.8945 29.7812 102.801C30.3672 106.707 31.2135 110.06 32.3203 112.859C33.4922 115.594 34.8594 117.84 36.4219 119.598C38.0495 121.29 39.9049 122.527 41.9883 123.309C44.1367 124.09 46.4805 124.48 49.0195 124.48C52.1445 124.48 54.9115 123.862 57.3203 122.625C59.7943 121.323 61.8776 119.305 63.5703 116.57C65.3281 113.771 66.6302 110.125 67.4766 105.633C68.3229 101.141 68.7461 95.6719 68.7461 89.2266ZM138.918 61.1992H153.957C158.775 61.1992 162.746 60.3854 165.871 58.7578C168.996 57.0651 171.307 54.7214 172.805 51.7266C174.367 48.6667 175.148 45.1185 175.148 41.082C175.148 37.4362 174.432 34.2135 173 31.4141C171.633 28.5495 169.517 26.3359 166.652 24.7734C163.788 23.1458 160.174 22.332 155.812 22.332C152.362 22.332 149.172 23.0156 146.242 24.3828C143.312 25.75 140.969 27.6706 139.211 30.1445C137.453 32.6185 136.574 35.6133 136.574 39.1289H108.352C108.352 31.3164 110.435 24.513 114.602 18.7188C118.833 12.9245 124.497 8.39974 131.594 5.14453C138.69 1.88932 146.503 0.261719 155.031 0.261719C164.667 0.261719 173.098 1.82422 180.324 4.94922C187.551 8.00911 193.182 12.5339 197.219 18.5234C201.255 24.513 203.273 31.9349 203.273 40.7891C203.273 45.2812 202.232 49.6432 200.148 53.875C198.065 58.0417 195.07 61.8177 191.164 65.2031C187.323 68.5234 182.635 71.1927 177.102 73.2109C171.568 75.1641 165.35 76.1406 158.449 76.1406H138.918V61.1992ZM138.918 82.5859V68.0352H158.449C166.197 68.0352 173 68.9141 178.859 70.6719C184.719 72.4297 189.634 74.9688 193.605 78.2891C197.577 81.5443 200.572 85.418 202.59 89.9102C204.608 94.3372 205.617 99.2526 205.617 104.656C205.617 111.297 204.348 117.221 201.809 122.43C199.27 127.573 195.689 131.935 191.066 135.516C186.509 139.096 181.171 141.831 175.051 143.719C168.931 145.542 162.258 146.453 155.031 146.453C149.042 146.453 143.15 145.639 137.355 144.012C131.626 142.319 126.418 139.812 121.73 136.492C117.108 133.107 113.397 128.875 110.598 123.797C107.863 118.654 106.496 112.566 106.496 105.535H134.719C134.719 109.181 135.63 112.436 137.453 115.301C139.276 118.165 141.783 120.411 144.973 122.039C148.228 123.667 151.841 124.48 155.812 124.48C160.305 124.48 164.146 123.667 167.336 122.039C170.591 120.346 173.065 118.003 174.758 115.008C176.516 111.948 177.395 108.4 177.395 104.363C177.395 99.1549 176.451 94.9883 174.562 91.8633C172.674 88.6732 169.973 86.3294 166.457 84.832C162.941 83.3346 158.775 82.5859 153.957 82.5859H138.918Z" fill="#F8F8F8"/>
</svg>
